<?xml version="1.0" encoding="utf-8"?>
<!-- Generator: Adobe Illustrator 20.1.0, SVG Export Plug-In . SVG Version: 6.00 Build 0)  -->
<svg version="1.1" id="Layer_1" xmlns="http://www.w3.org/2000/svg" xmlns:xlink="http://www.w3.org/1999/xlink" x="0px" y="0px"
	 viewBox="0 0 157.9 286.9" style="enable-background:new 0 0 157.9 286.9;" xml:space="preserve">
<g>
	<g>
		<g>
			<g>
				<path d="M5.9,247.6c0,0.8-0.3,1.6-0.8,2.1s-1.3,0.8-2.1,0.8c-0.8,0-1.6-0.3-2.1-0.9c-0.6-0.5-0.8-1.3-0.8-2.1
					c0-1.6,1.3-2.9,2.9-2.9h0c0.8,0,1.6,0.3,2.1,0.8C5.6,246,5.9,246.8,5.9,247.6z"/>
			</g>
			<g>
				<path d="M145.7,3c0,0.8-0.3,1.6-0.9,2.1c-0.5,0.5-1.3,0.9-2.1,0.8c-1.6,0-2.9-1.3-2.9-2.9c0-0.8,0.3-1.6,0.8-2.2
					c0.5-0.5,1.3-0.9,2.1-0.9c0.8,0,1.6,0.3,2.1,0.8C145.4,1.4,145.7,2.1,145.7,3z"/>
			</g>
			<g>
				<path d="M17.6,247.6c0,0.8-0.3,1.6-0.8,2.1c-0.5,0.5-1.3,0.8-2.1,0.8c0,0,0,0,0,0c-0.8,0-1.6-0.3-2.1-0.9
					c-0.5-0.5-0.8-1.3-0.8-2.1c0-1.6,1.3-2.9,2.9-2.9h0c0.8,0,1.6,0.3,2.1,0.8C17.3,246,17.6,246.8,17.6,247.6z"/>
			</g>
			<g>
				<path d="M29.2,247.6L29.2,247.6c0,0.9-0.3,1.6-0.9,2.1c-0.6,0.5-1.3,0.8-2.2,0.8c-0.8,0-1.6-0.3-2.1-0.9
					c-0.5-0.6-0.8-1.3-0.8-2.2c0.1-1.6,1.3-2.9,3-2.9h0c0.8,0,1.6,0.3,2.1,0.9C28.9,246,29.2,246.8,29.2,247.6z"/>
			</g>
			<g>
				<path d="M122.4,247.6c0,0.8-0.3,1.6-0.9,2.1c-0.5,0.5-1.3,0.9-2.1,0.8c-1.6,0-2.9-1.3-2.9-2.9c0-0.8,0.3-1.6,0.8-2.2
					c0.5-0.5,1.3-0.9,2.1-0.9c0.8,0,1.6,0.3,2.1,0.8C122.1,246,122.4,246.8,122.4,247.6z"/>
			</g>
			<g>
				<path d="M139.9,8.9c0,0.8-0.3,1.5-0.9,2.1c-0.6,0.5-1.3,0.8-2.2,0.8c-1.6,0-2.8-1.3-2.8-3c0-0.8,0.3-1.6,0.9-2.1
					c0.5-0.5,1.3-0.8,2.1-0.8h0c0.8,0,1.6,0.3,2.1,0.9C139.6,7.3,139.9,8,139.9,8.9z"/>
			</g>
			<g>
				<path d="M128.4,8.9c0,0.8-0.3,1.5-0.9,2.1c-0.6,0.5-1.3,0.8-2.2,0.8c-1.6,0-2.9-1.3-2.8-3c0-0.8,0.3-1.6,0.9-2.1
					c0.6-0.5,1.3-0.8,2.1-0.8h0c0.8,0,1.6,0.3,2.1,0.9C128.1,7.3,128.4,8,128.4,8.9z"/>
			</g>
			<g>
				<path d="M151.5,8.8c0,0.8-0.3,1.6-0.9,2.1c-0.5,0.5-1.3,0.8-2.1,0.8c0,0,0,0,0,0c-1.6,0-2.9-1.3-2.9-2.9c0-0.8,0.3-1.6,0.8-2.2
					c0.5-0.6,1.3-0.9,2.1-0.9c0.8,0,1.6,0.3,2.1,0.8C151.2,7.2,151.5,8,151.5,8.8z"/>
			</g>
			<g>
				<path d="M134.1,247.6c0,0.8-0.3,1.6-0.8,2.1c-0.5,0.5-1.3,0.9-2.1,0.9c-0.8,0-1.6-0.3-2.1-0.9c-0.5-0.5-0.8-1.3-0.8-2.1
					c0-1.6,1.3-2.9,2.9-2.9h0.1c0.8,0,1.5,0.3,2.1,0.8C133.7,246,134,246.7,134.1,247.6z"/>
			</g>
			<g>
				<path d="M146.2,247.6c0,0.8-0.3,1.6-0.8,2.1c-0.5,0.5-1.3,0.9-2.1,0.9c-0.8,0-1.6-0.3-2.1-0.9c-0.5-0.5-0.8-1.3-0.8-2.1
					c0-1.6,1.3-2.9,2.9-2.9h0c0.8,0,1.6,0.3,2.1,0.8C145.9,246,146.2,246.7,146.2,247.6z"/>
			</g>
			<g>
				<path d="M11.7,253.5c0,0.8-0.3,1.6-0.9,2.1c-0.6,0.6-1.3,0.8-2.2,0.8c-0.8,0-1.5-0.3-2.1-0.9c-0.5-0.6-0.8-1.4-0.8-2.2
					c0-1.6,1.3-2.8,3-2.8c0,0,0,0,0,0c0.8,0,1.6,0.3,2.1,0.9C11.5,251.9,11.8,252.6,11.7,253.5z"/>
			</g>
			<g>
				<path d="M134.1,14.6c0,0.8-0.3,1.6-0.8,2.1c-0.5,0.6-1.3,0.9-2.1,0.9c0,0,0,0,0,0c-0.8,0-1.6-0.3-2.1-0.8
					c-0.5-0.5-0.8-1.3-0.8-2.1c0-0.8,0.3-1.6,0.8-2.1c0.5-0.5,1.3-0.8,2.1-0.8h0C132.8,11.7,134,12.9,134.1,14.6z"/>
			</g>
			<g>
				<path d="M134.1,2.9c0,0.8-0.3,1.6-0.8,2.2c-0.5,0.5-1.3,0.8-2.1,0.9c0,0,0,0,0,0c-0.8,0-1.6-0.3-2.1-0.8
					c-0.5-0.5-0.8-1.3-0.8-2.1c0-0.8,0.3-1.6,0.8-2.1c0.5-0.5,1.3-0.8,2.1-0.8h0C132.8,0,134,1.3,134.1,2.9z"/>
			</g>
			<g>
				<path d="M145.7,14.6c0,0.8-0.3,1.6-0.9,2.1c-0.6,0.5-1.3,0.8-2.1,0.8h0c-0.8,0-1.6-0.3-2.1-0.9c-0.5-0.6-0.8-1.3-0.8-2.2
					c0-1.6,1.3-2.9,3-2.9h0c0.8,0,1.6,0.3,2.1,0.8C145.4,13,145.7,13.8,145.7,14.6z"/>
			</g>
			<g>
				<path d="M128.2,20.4c0,0.8-0.3,1.6-0.8,2.1c-0.5,0.5-1.3,0.8-2.1,0.8h0c-0.8,0-1.6-0.3-2.1-0.9c-0.5-0.5-0.8-1.3-0.8-2.1
					c0-1.6,1.3-2.9,2.9-2.9h0c0.8,0,1.6,0.3,2.1,0.8C127.9,18.8,128.2,19.6,128.2,20.4z"/>
			</g>
			<g>
				<path d="M139.9,20.4c0,0.8-0.3,1.6-0.9,2.1c-0.6,0.5-1.4,0.8-2.1,0.8c-0.8,0-1.6-0.3-2.1-0.9c-0.5-0.6-0.8-1.3-0.8-2.2
					c0-1.6,1.3-2.9,2.9-2.9c0,0,0,0,0,0c0.8,0,1.6,0.3,2.1,0.8C139.6,18.9,139.9,19.6,139.9,20.4z"/>
			</g>
			<g>
				<path d="M151.5,20.4L151.5,20.4c0,0.9-0.3,1.6-0.9,2.1c-0.5,0.5-1.3,0.8-2.1,0.8h0c-0.8,0-1.6-0.3-2.1-0.9
					c-0.5-0.6-0.8-1.3-0.8-2.2c0-1.6,1.3-2.9,3-2.9c0,0,0,0,0,0c0.8,0,1.6,0.3,2.1,0.8S151.5,19.6,151.5,20.4z"/>
			</g>
			<g>
				<path d="M23.4,253.4c0,0.8-0.3,1.6-0.9,2.1c-0.5,0.5-1.3,0.8-2.1,0.8h0c-0.8,0-1.6-0.3-2.1-0.9c-0.5-0.6-0.8-1.3-0.8-2.2
					c0-0.8,0.3-1.5,0.9-2.1c0.5-0.5,1.3-0.8,2.1-0.8h0.1C22.2,250.5,23.4,251.8,23.4,253.4z"/>
			</g>
			<g>
				<path d="M35,253.5c0,0.8-0.3,1.6-0.9,2.1c-0.6,0.5-1.3,0.8-2.2,0.8c-1.6,0-2.9-1.3-2.8-3c0-0.8,0.3-1.6,0.9-2.1
					c0.5-0.5,1.3-0.8,2.1-0.8h0c0.8,0,1.6,0.3,2.1,0.9C34.8,251.9,35.1,252.7,35,253.5z"/>
			</g>
			<g>
				<path d="M134.1,26.2c0,0.8-0.3,1.6-0.8,2.1c-0.5,0.5-1.3,0.9-2.1,0.9c0,0,0,0,0,0c-0.8,0-1.6-0.3-2.1-0.8
					c-0.5-0.5-0.8-1.3-0.8-2.1c0-0.8,0.3-1.6,0.8-2.1s1.3-0.8,2.1-0.8h0C132.8,23.3,134,24.6,134.1,26.2z"/>
			</g>
			<g>
				<path d="M122.3,14.6c0,0.8-0.3,1.6-0.8,2.1c-0.5,0.6-1.3,0.9-2.1,0.9h0c-0.8,0-1.6-0.3-2.1-0.8c-0.5-0.5-0.8-1.3-0.8-2.1
					c0-0.8,0.3-1.6,0.9-2.1c0.5-0.5,1.3-0.8,2.1-0.8h0C121.1,11.7,122.3,12.9,122.3,14.6z"/>
			</g>
			<g>
				<path d="M122.3,26.2c0,0.8-0.3,1.6-0.8,2.1c-0.5,0.5-1.3,0.9-2.1,0.9h0c-0.8,0-1.6-0.3-2.1-0.8s-0.8-1.3-0.8-2.1
					c0-0.8,0.3-1.6,0.9-2.1c0.5-0.5,1.3-0.8,2.1-0.8h0C121.1,23.3,122.3,24.6,122.3,26.2z"/>
			</g>
			<g>
				<path d="M145.7,26.2c0,0.8-0.3,1.6-0.8,2.1c-0.5,0.5-1.3,0.9-2.1,0.9c0,0,0,0,0,0c-0.8,0-1.6-0.3-2.1-0.8
					c-0.5-0.5-0.9-1.3-0.9-2.1c0-0.8,0.3-1.6,0.9-2.1s1.3-0.8,2.1-0.8h0C144.4,23.3,145.7,24.6,145.7,26.2z"/>
			</g>
			<g>
				<path d="M157.9,14.6c0,0.8-0.3,1.6-0.9,2.1c-0.5,0.5-1.4,0.8-2.1,0.8c-0.8,0-1.6-0.3-2.1-0.9c-0.5-0.6-0.8-1.3-0.8-2.2
					c0-1.6,1.3-2.9,2.9-2.9c0,0,0,0,0,0c0.8,0,1.6,0.3,2.1,0.8C157.6,13,157.9,13.8,157.9,14.6z"/>
			</g>
			<g>
				<path d="M157.9,26.2c0,0.8-0.3,1.6-0.8,2.1c-0.5,0.5-1.3,0.9-2.1,0.9h0c-0.8,0-1.6-0.3-2.1-0.8c-0.5-0.5-0.8-1.3-0.8-2.1
					c0-0.8,0.3-1.6,0.9-2.1c0.5-0.5,1.3-0.8,2.1-0.8h0C156.7,23.3,157.9,24.6,157.9,26.2z"/>
			</g>
			<g>
				<path d="M134.1,38.2c0,0.8-0.3,1.6-0.8,2.2c-0.5,0.5-1.3,0.8-2.1,0.9c0,0,0,0,0,0c-0.8,0-1.6-0.3-2.1-0.8
					c-0.5-0.5-0.8-1.3-0.8-2.1c0-0.8,0.3-1.6,0.8-2.1c0.5-0.5,1.3-0.8,2.1-0.8h0C132.8,35.4,134,36.6,134.1,38.2z"/>
			</g>
			<g>
				<path d="M145.7,38.2c0,0.8-0.3,1.6-0.8,2.2c-0.5,0.5-1.3,0.8-2.1,0.9c0,0,0,0,0,0c-0.8,0-1.6-0.3-2.1-0.8
					c-0.5-0.5-0.9-1.3-0.9-2.1c0-0.8,0.3-1.6,0.9-2.1c0.5-0.5,1.3-0.8,2.1-0.8h0C144.4,35.4,145.7,36.6,145.7,38.2z"/>
			</g>
			<g>
				<path d="M128.2,32.1c0,0.8-0.3,1.6-0.9,2.1c-0.6,0.5-1.3,0.8-2.2,0.8c-0.8,0-1.5-0.3-2.1-0.9c-0.5-0.6-0.8-1.3-0.8-2.2
					c0-1.6,1.3-2.8,3-2.8h0c0.8,0,1.6,0.3,2.1,0.9C128,30.6,128.2,31.3,128.2,32.1z"/>
			</g>
			<g>
				<path d="M139.9,32.2c0,0.8-0.4,1.5-0.9,2.1c-0.6,0.5-1.4,0.8-2.2,0.8c-0.8,0-1.5-0.4-2-0.9c-0.5-0.6-0.8-1.4-0.8-2.2
					c0.1-1.6,1.3-2.8,3-2.8h0.1c0.8,0,1.5,0.3,2.1,0.9C139.6,30.6,139.9,31.4,139.9,32.2z"/>
			</g>
			<g>
				<path d="M151.5,32.2c-0.1,1.6-1.3,2.9-3,2.9h0c-0.8,0-1.6-0.3-2.1-0.9c-0.5-0.6-0.8-1.3-0.8-2.1c0-0.8,0.3-1.6,0.9-2.1
					c0.6-0.5,1.3-0.8,2.2-0.8c0.8,0,1.5,0.3,2.1,0.9C151.3,30.6,151.6,31.4,151.5,32.2z"/>
			</g>
			<g>
				<path d="M116.6,253.5c0,0.8-0.3,1.5-0.9,2.1c-0.6,0.5-1.4,0.8-2.2,0.8c-0.8,0-1.5-0.3-2.1-0.9c-0.5-0.6-0.8-1.3-0.8-2.2
					c0.1-1.6,1.3-2.8,3-2.8h0c0.8,0,1.6,0.3,2.1,0.9C116.3,251.9,116.6,252.6,116.6,253.5z"/>
			</g>
			<g>
				<path d="M128.2,253.4c0,0.8-0.3,1.6-0.9,2.1c-0.6,0.5-1.3,0.8-2.2,0.8c-1.6,0-2.9-1.3-2.9-2.9c0-0.8,0.3-1.6,0.8-2.1
					c0.5-0.5,1.3-0.8,2.1-0.8s1.6,0.3,2.1,0.8C127.9,251.9,128.2,252.6,128.2,253.4z"/>
			</g>
			<g>
				<path d="M139.9,253.4L139.9,253.4c0,0.9-0.3,1.6-0.9,2.1c-0.6,0.5-1.3,0.8-2.2,0.8c-0.8,0-1.6-0.3-2.1-0.9
					c-0.5-0.6-0.8-1.3-0.8-2.2c0-1.6,1.3-2.8,3-2.8h0c0.8,0,1.6,0.3,2.1,0.9C139.6,251.9,139.9,252.6,139.9,253.4z"/>
			</g>
			<g>
				<path d="M17.6,259.2L17.6,259.2c0,0.9-0.3,1.6-0.9,2.1c-0.6,0.5-1.3,0.8-2.2,0.8c-0.8,0-1.5-0.3-2.1-0.9
					c-0.5-0.6-0.8-1.3-0.8-2.2c0-1.6,1.3-2.8,2.9-2.8c0,0,0,0,0,0c0.8,0,1.6,0.3,2.1,0.8C17.3,257.7,17.6,258.4,17.6,259.2z"/>
			</g>
			<g>
				<path d="M29.2,259.1c0,0.8-0.3,1.6-0.8,2.2c-0.5,0.6-1.3,0.9-2.1,0.9c-0.8,0-1.6-0.3-2.2-0.8c-0.5-0.5-0.9-1.3-0.9-2.1
					c0-0.8,0.3-1.6,0.8-2.1c0.5-0.5,1.3-0.8,2.1-0.8C27.9,256.3,29.2,257.5,29.2,259.1z"/>
			</g>
			<g>
				<path d="M40.9,259.1c0,0.8-0.3,1.6-0.8,2.2c-0.5,0.6-1.3,0.9-2.1,0.9c-0.9,0-1.6-0.3-2.2-0.8c-0.5-0.5-0.9-1.3-0.9-2.1
					c0-0.8,0.3-1.6,0.8-2.1c0.6-0.5,1.3-0.8,2.1-0.8C39.6,256.3,40.8,257.5,40.9,259.1z"/>
			</g>
			<g>
				<path d="M110.8,259.3c0,0.8-0.3,1.6-0.9,2.1c-0.6,0.5-1.3,0.8-2.2,0.8c-1.6,0-2.9-1.3-2.9-2.9c0-0.8,0.3-1.6,0.8-2.1
					c0.5-0.5,1.3-0.8,2.1-0.8c0,0,0,0,0,0c0.8,0,1.6,0.3,2.1,0.9C110.5,257.7,110.8,258.5,110.8,259.3z"/>
			</g>
			<g>
				<path d="M29.2,166c0,0.8-0.3,1.6-0.9,2.1c-0.5,0.5-1.3,0.8-2.1,0.8c0,0,0,0,0,0c-1.6,0-2.9-1.3-2.9-2.9c0-0.8,0.3-1.6,0.8-2.1
					c0.5-0.6,1.3-0.9,2.1-0.9h0c0.8,0,1.6,0.3,2.1,0.8C28.9,164.5,29.2,165.2,29.2,166z"/>
			</g>
			<g>
				<path d="M122.4,259.2c0,0.8-0.3,1.6-0.8,2.1c-0.5,0.5-1.3,0.8-2.1,0.8c-0.8,0-1.6-0.3-2.1-0.8c-0.5-0.5-0.8-1.3-0.8-2.1
					c0-1.7,1.3-2.9,2.9-2.9h0.1c0.8,0,1.5,0.3,2.1,0.8C122.1,257.6,122.4,258.4,122.4,259.2z"/>
			</g>
			<g>
				<path d="M134.1,259.2c0,0.8-0.3,1.6-0.9,2.1c-0.5,0.5-1.3,0.8-2.1,0.8c-0.8,0-1.6-0.3-2.1-0.9c-0.5-0.6-0.8-1.3-0.8-2.2
					c0-1.6,1.3-2.9,2.9-2.9c0,0,0,0,0,0c0.8,0,1.6,0.3,2.1,0.8C133.8,257.7,134.1,258.4,134.1,259.2z"/>
			</g>
			<g>
				<path d="M23.4,265.1c0,0.8-0.3,1.6-0.9,2.1s-1.3,0.8-2.2,0.8c-1.6,0-2.9-1.3-2.9-2.9c0-0.8,0.3-1.6,0.8-2.1
					c0.5-0.5,1.3-0.8,2.1-0.8h0c0.8,0,1.6,0.3,2.1,0.9C23.1,263.5,23.4,264.3,23.4,265.1z"/>
			</g>
			<g>
				<path d="M11.9,265.1c0,0.8-0.3,1.6-0.9,2.1S9.7,268,8.8,268c-1.6,0-2.9-1.3-2.9-2.9c0-0.8,0.3-1.6,0.8-2.1
					c0.5-0.5,1.3-0.8,2.1-0.8c0,0,0,0,0,0c0.8,0,1.6,0.3,2.1,0.9C11.6,263.5,11.9,264.3,11.9,265.1z"/>
			</g>
			<g>
				<path d="M23.4,172c0,0.8-0.3,1.5-0.9,2.1c-0.6,0.5-1.3,0.8-2.2,0.8c-1.6,0-2.8-1.3-2.8-3c0-0.8,0.3-1.6,0.9-2.1
					c0.5-0.5,1.3-0.8,2.1-0.8h0c0.8,0,1.6,0.3,2.1,0.9C23.1,170.4,23.4,171.1,23.4,172z"/>
			</g>
			<g>
				<path d="M35,171.9c0,0.8-0.3,1.6-0.9,2.1c-0.6,0.5-1.3,0.8-2.2,0.8c-1.6,0-2.9-1.3-2.9-2.9c0-0.8,0.3-1.6,0.8-2.1
					c0.5-0.5,1.3-0.8,2.1-0.8c0.8,0,1.6,0.3,2.1,0.8S35,171.1,35,171.9z"/>
			</g>
			<g>
				<path d="M35,265c0,0.8-0.3,1.6-0.8,2.1c-0.5,0.6-1.3,0.9-2.1,0.9c-0.8,0-1.6-0.3-2.1-0.9c-0.5-0.6-0.8-1.3-0.8-2.2
					c0-1.6,1.3-2.9,2.9-2.9h0c0.8,0,1.6,0.3,2.1,0.8C34.7,263.5,35,264.2,35,265z"/>
			</g>
			<g>
				<path d="M17.6,177.7L17.6,177.7c0,0.8-0.3,1.6-0.9,2.1c-0.6,0.5-1.3,0.8-2.2,0.8c-0.8,0-1.5-0.3-2.1-0.9
					c-0.5-0.6-0.8-1.3-0.8-2.2c0-1.6,1.3-2.9,3-2.9c0,0,0,0,0,0c0.8,0,1.6,0.3,2.1,0.9C17.3,176.1,17.6,176.9,17.6,177.7z"/>
			</g>
			<g>
				<path d="M17.6,166.1L17.6,166.1c0,0.9-0.3,1.6-0.9,2.1c-0.6,0.6-1.3,0.8-2.2,0.8c-0.8,0-1.5-0.3-2.1-0.9
					c-0.5-0.6-0.8-1.3-0.8-2.2c0-1.6,1.3-2.9,3-2.9c0,0,0,0,0,0c0.8,0,1.6,0.3,2.1,0.9C17.3,164.5,17.6,165.2,17.6,166.1z"/>
			</g>
			<g>
				<path d="M29.2,177.7c0,0.8-0.3,1.6-0.8,2.1c-0.5,0.5-1.3,0.9-2.1,0.9c0,0,0,0,0,0c-0.8,0-1.6-0.3-2.1-0.9
					c-0.5-0.5-0.9-1.3-0.9-2.1c0-1.6,1.3-2.9,2.9-2.9h0.1c0.8,0,1.5,0.3,2.1,0.8C28.9,176.1,29.2,176.8,29.2,177.7z"/>
			</g>
			<g>
				<path d="M40.9,177.7c0,0.8-0.3,1.6-0.9,2.1c-0.6,0.5-1.3,0.8-2.1,0.8c-1.6,0-2.9-1.3-2.9-2.9c0-0.8,0.3-1.6,0.8-2.1
					c0.6-0.5,1.3-0.9,2.1-0.9c0.8,0,1.6,0.3,2.1,0.9C40.6,176.1,40.9,176.9,40.9,177.7z"/>
			</g>
			<g>
				<path d="M40.7,166c0,0.8-0.3,1.6-0.8,2.1c-0.5,0.5-1.3,0.9-2.1,0.8c-1.7,0-2.9-1.3-2.9-2.9c0-0.8,0.3-1.6,0.8-2.1
					c0.5-0.6,1.3-0.9,2.1-0.9h0c0.8,0,1.6,0.3,2.1,0.8C40.4,164.5,40.7,165.2,40.7,166z"/>
			</g>
			<g>
				<path d="M52.4,177.7c0,0.8-0.3,1.6-0.9,2.1c-0.6,0.5-1.3,0.8-2.2,0.8c-1.6,0-2.9-1.3-2.9-2.9c0-0.8,0.3-1.6,0.8-2.1
					c0.5-0.5,1.3-0.9,2.1-0.9s1.6,0.3,2.1,0.9C52.1,176.1,52.4,176.9,52.4,177.7z"/>
			</g>
			<g>
				<path d="M46.7,265.1c0,0.8-0.3,1.6-0.9,2.1s-1.3,0.8-2.2,0.8c-1.6,0-2.9-1.3-2.9-2.9c0-0.8,0.3-1.6,0.8-2.1
					c0.5-0.5,1.3-0.8,2.1-0.8c0.8,0,1.6,0.3,2.1,0.9C46.4,263.5,46.7,264.3,46.7,265.1z"/>
			</g>
			<g>
				<path d="M58.3,265v0.1c0,0.8-0.3,1.5-0.9,2.1c-0.6,0.5-1.4,0.8-2.2,0.8c-0.8,0-1.5-0.3-2-0.9c-0.5-0.6-0.8-1.4-0.8-2.2
					c0.1-1.6,1.3-2.8,3-2.8h0.1c0.8,0,1.5,0.3,2.1,0.9C58,263.5,58.3,264.3,58.3,265z"/>
			</g>
			<g>
				<path d="M93.3,265c0,0.8-0.3,1.6-0.8,2.1c-0.5,0.6-1.3,0.9-2.1,0.9h0c-0.8,0-1.6-0.3-2.1-0.9c-0.5-0.6-0.8-1.3-0.8-2.2
					c0-1.6,1.3-2.9,2.9-2.9h0c0.8,0,1.5,0.3,2.1,0.8C93,263.5,93.3,264.2,93.3,265z"/>
			</g>
			<g>
				<path d="M104.9,265.1c0,0.8-0.3,1.6-0.9,2.1c-0.6,0.5-1.3,0.8-2.2,0.8c-1.6,0-2.9-1.3-2.9-2.9c0-0.8,0.3-1.6,0.8-2.1
					c0.6-0.5,1.3-0.8,2.1-0.8h0c0.8,0,1.6,0.3,2.1,0.9C104.6,263.5,104.9,264.3,104.9,265.1z"/>
			</g>
			<g>
				<path d="M116.6,265.1c0,0.8-0.3,1.6-0.9,2.1c-0.6,0.5-1.3,0.8-2.2,0.8c-0.8,0-1.5-0.3-2.1-0.9c-0.5-0.6-0.8-1.3-0.8-2.2
					c0.1-1.6,1.3-2.9,3-2.9h0c0.8,0,1.6,0.3,2.1,0.9C116.3,263.5,116.6,264.3,116.6,265.1z"/>
			</g>
			<g>
				<path d="M23.4,183.5c0,0.8-0.3,1.6-0.9,2.1c-0.5,0.5-1.3,0.8-2.1,0.8c-0.8,0-1.6-0.3-2.1-0.9c-0.5-0.6-0.8-1.3-0.8-2.2
					c0-1.6,1.3-2.9,2.9-2.9h0c0.8,0,1.6,0.3,2.1,0.8C23.1,182,23.4,182.7,23.4,183.5z"/>
			</g>
			<g>
				<path d="M35,183.5c0,0.8-0.3,1.6-0.9,2.1c-0.5,0.5-1.3,0.8-2.1,0.8c-0.8,0-1.6-0.3-2.1-0.9c-0.5-0.6-0.8-1.3-0.8-2.2
					c0-1.6,1.3-2.9,2.9-2.9h0c0.8,0,1.6,0.3,2.1,0.8C34.7,182,35,182.7,35,183.5z"/>
			</g>
			<g>
				<path d="M46.7,183.5c0,0.8-0.3,1.6-0.9,2.1c-0.6,0.5-1.3,0.8-2.2,0.8c-0.8,0-1.6-0.3-2.1-0.9c-0.5-0.6-0.8-1.3-0.8-2.2
					c0-1.6,1.3-2.9,2.9-2.9c0,0,0,0,0,0c0.8,0,1.6,0.3,2.1,0.9C46.4,182,46.7,182.7,46.7,183.5z"/>
			</g>
			<g>
				<path d="M58.3,183.6c0,0.8-0.3,1.6-0.9,2.1c-0.5,0.5-1.3,0.8-2.1,0.8h-0.1c-1.6,0-2.9-1.3-2.9-2.9c0-0.8,0.3-1.6,0.8-2.1
					c0.5-0.6,1.3-0.9,2.1-0.9c0,0,0,0,0,0c0.8,0,1.6,0.3,2.1,0.9C58,182,58.3,182.7,58.3,183.6z"/>
			</g>
			<g>
				<path d="M70,183.5c0,0.8-0.3,1.6-0.8,2.1c-0.5,0.5-1.3,0.8-2.1,0.8c-0.8,0-1.6-0.3-2.1-0.9c-0.5-0.6-0.8-1.3-0.8-2.2
					c0-1.6,1.3-2.9,2.9-2.9h0c0.8,0,1.6,0.3,2.1,0.8C69.7,181.9,70,182.7,70,183.5z"/>
			</g>
			<g>
				<path d="M81.6,183.5L81.6,183.5c0,0.8-0.3,1.6-0.9,2.1c-0.6,0.5-1.3,0.8-2.2,0.8c-0.8,0-1.5-0.3-2.1-0.9
					c-0.5-0.6-0.8-1.3-0.8-2.2c0-1.6,1.3-2.8,3-2.8c0,0,0,0,0,0c0.8,0,1.6,0.3,2.1,0.9C81.3,182,81.6,182.7,81.6,183.5z"/>
			</g>
			<g>
				<path d="M93.3,183.4c0,0.8-0.3,1.6-0.8,2.2c-0.5,0.5-1.3,0.9-2.1,0.9c-0.8,0-1.6-0.3-2.2-0.8c-0.5-0.5-0.8-1.3-0.9-2.1
					c0-0.8,0.3-1.6,0.9-2.1c0.5-0.5,1.3-0.8,2.1-0.8c0,0,0,0,0,0C92,180.6,93.3,181.8,93.3,183.4z"/>
			</g>
			<g>
				<path d="M128.2,265.1c0,0.8-0.3,1.6-0.8,2.1c-0.5,0.5-1.3,0.8-2.1,0.8h0c-0.8,0-1.6-0.3-2.1-0.9c-0.5-0.5-0.8-1.3-0.8-2.2
					c0-0.8,0.3-1.5,0.9-2.1c0.6-0.5,1.3-0.8,2.2-0.8C127,262.1,128.2,263.4,128.2,265.1z"/>
			</g>
			<g>
				<path d="M140.6,265.1c0,0.8-0.3,1.6-0.8,2.1c-0.5,0.5-1.3,0.8-2.1,0.8c0,0,0,0,0,0c-0.8,0-1.6-0.3-2.1-0.9
					c-0.5-0.5-0.8-1.3-0.8-2.2c0-0.8,0.3-1.5,0.9-2.1c0.6-0.5,1.3-0.8,2.2-0.8C139.3,262.1,140.6,263.4,140.6,265.1z"/>
			</g>
			<g>
				<path d="M29.2,270.9c0,0.8-0.3,1.6-0.9,2.1c-0.5,0.5-1.3,0.8-2.1,0.8c-0.8,0-1.6-0.3-2.1-0.9c-0.5-0.6-0.8-1.3-0.8-2.2
					c0-1.6,1.3-2.9,2.9-2.9c0,0,0,0,0,0c0.8,0,1.6,0.3,2.1,0.9C28.9,269.3,29.2,270.1,29.2,270.9z"/>
			</g>
			<g>
				<path d="M29.2,189.3c0,0.8-0.3,1.6-0.8,2.2c-0.5,0.6-1.3,0.9-2.1,0.9c-0.8,0-1.6-0.3-2.2-0.8c-0.5-0.5-0.9-1.3-0.9-2.1
					c0-0.8,0.3-1.6,0.8-2.1c0.5-0.5,1.3-0.9,2.1-0.9C27.9,186.4,29.2,187.6,29.2,189.3z"/>
			</g>
			<g>
				<path d="M40.9,189.3c0,0.8-0.3,1.6-0.8,2.1c-0.5,0.5-1.3,0.9-2.1,0.9c0,0,0,0,0,0c-0.8,0-1.6-0.3-2.1-0.8
					c-0.5-0.5-0.8-1.3-0.8-2.1c0-0.8,0.3-1.6,0.9-2.1c0.6-0.5,1.3-0.8,2.2-0.8C39.6,186.4,40.8,187.7,40.9,189.3z"/>
			</g>
			<g>
				<path d="M52.5,189.3c0,0.8-0.3,1.6-0.8,2.1c-0.5,0.6-1.3,0.9-2.1,0.9s-1.6-0.3-2.1-0.8s-0.8-1.3-0.8-2.1c0-1.6,1.3-2.9,2.9-2.9
					h0c0.8,0,1.6,0.3,2.1,0.8C52.2,187.7,52.5,188.5,52.5,189.3z"/>
			</g>
			<g>
				<path d="M64.2,189.4c0,0.8-0.3,1.5-0.9,2.1c-0.6,0.5-1.3,0.8-2.2,0.8c-1.6,0-2.9-1.3-2.9-3c0-0.8,0.3-1.6,0.9-2.1
					c0.5-0.5,1.3-0.8,2.1-0.8h0c0.8,0,1.6,0.3,2.1,0.9C63.9,187.8,64.2,188.6,64.2,189.4z"/>
			</g>
			<g>
				<path d="M75.8,189.3c0,0.8-0.3,1.6-0.8,2.1c-0.5,0.5-1.3,0.8-2.1,0.8c0,0,0,0,0,0c-1.6,0-2.9-1.3-2.9-2.9c0-0.8,0.3-1.6,0.8-2.2
					c0.5-0.6,1.3-0.9,2.1-0.9c0.9,0,1.6,0.3,2.2,0.8C75.5,187.8,75.8,188.5,75.8,189.3z"/>
			</g>
			<g>
				<path d="M87.5,189.4c0,0.8-0.3,1.5-0.9,2.1c-0.6,0.5-1.3,0.8-2.2,0.8c-0.8,0-1.5-0.3-2.1-0.9c-0.5-0.6-0.8-1.3-0.8-2.2
					c0.1-1.6,1.3-2.8,3-2.8c0,0,0,0,0,0c0.8,0,1.6,0.3,2.1,0.9S87.5,188.6,87.5,189.4z"/>
			</g>
			<g>
				<path d="M99.1,189.4c0,0.8-0.3,1.6-0.9,2.1c-0.5,0.5-1.3,0.8-2.1,0.8c-0.8,0-1.6-0.3-2.1-0.9c-0.5-0.6-0.8-1.3-0.8-2.2
					c0-0.8,0.3-1.5,0.9-2.1c0.6-0.5,1.4-0.8,2.2-0.8C97.9,186.4,99.1,187.7,99.1,189.4z"/>
			</g>
			<g>
				<path d="M110.8,189.3c0,0.8-0.3,1.6-0.8,2.1c-0.5,0.5-1.3,0.9-2.1,0.9h0c-0.8,0-1.6-0.3-2.1-0.8c-0.5-0.5-0.8-1.3-0.8-2.1
					c0-1.7,1.2-2.9,2.9-3h0.1c0.8,0,1.5,0.3,2.1,0.8S110.7,188.5,110.8,189.3z"/>
			</g>
			<g>
				<path d="M122.4,189.3c0,0.8-0.3,1.6-0.9,2.1c-0.6,0.5-1.3,0.8-2.1,0.8c-0.8,0-1.6-0.3-2.1-0.9c-0.5-0.6-0.8-1.3-0.8-2.1
					c0-1.6,1.3-2.9,2.9-2.9c0,0,0,0,0,0c0.8,0,1.6,0.3,2.1,0.8C122.1,187.8,122.4,188.5,122.4,189.3z"/>
			</g>
			<g>
				<path d="M40.9,271c0,0.8-0.3,1.5-0.9,2.1c-0.6,0.5-1.4,0.8-2.2,0.8c-0.8,0-1.5-0.4-2.1-0.9c-0.5-0.6-0.8-1.4-0.8-2.2
					c0.1-1.6,1.3-2.8,3-2.8H38c0.8,0,1.5,0.3,2.1,0.9C40.6,269.4,40.9,270.2,40.9,271z"/>
			</g>
			<g>
				<path d="M52.5,270.9c0,0.8-0.3,1.6-0.9,2.1c-0.6,0.5-1.3,0.8-2.1,0.8c-0.8,0-1.6-0.3-2.1-0.9c-0.5-0.6-0.8-1.3-0.8-2.2
					c0-1.6,1.3-2.9,2.9-2.9c0,0,0,0,0,0c0.8,0,1.6,0.3,2.1,0.9C52.2,269.3,52.5,270.1,52.5,270.9z"/>
			</g>
			<g>
				<path d="M64.2,270.9c0,0.8-0.3,1.6-0.9,2.1c-0.6,0.5-1.3,0.8-2.2,0.8c-1.6,0-2.9-1.3-2.9-2.9c0-0.8,0.3-1.6,0.8-2.1
					c0.5-0.5,1.3-0.9,2.1-0.9h0c0.8,0,1.6,0.3,2.1,0.9C63.9,269.3,64.2,270.1,64.2,270.9z"/>
			</g>
			<g>
				<path d="M46.7,195.2c0,0.8-0.3,1.6-0.9,2.1c-0.5,0.5-1.3,0.8-2.1,0.8h-0.1c-0.8,0-1.5-0.3-2.1-0.9c-0.5-0.6-0.8-1.3-0.8-2.2
					c0-0.8,0.3-1.5,0.9-2.1c0.5-0.5,1.3-0.8,2.1-0.8h0.1C45.5,192.3,46.7,193.6,46.7,195.2z"/>
			</g>
			<g>
				<path d="M35.2,195.2c0,0.8-0.3,1.6-0.9,2.1c-0.5,0.5-1.2,0.8-2.1,0.8h-0.1c-0.8,0-1.6-0.3-2.1-0.9c-0.5-0.6-0.8-1.3-0.8-2.2
					c0-0.8,0.3-1.5,0.9-2.1c0.5-0.5,1.3-0.8,2.1-0.8h0.1C34,192.3,35.2,193.6,35.2,195.2z"/>
			</g>
			<g>
				<path d="M58.3,195.2v0.1c0,0.8-0.3,1.5-0.9,2.1c-0.6,0.5-1.4,0.8-2.2,0.8c-0.8,0-1.5-0.3-2-0.9c-0.5-0.6-0.8-1.4-0.8-2.2
					c0.1-1.6,1.3-2.8,3-2.8h0.1c0.8,0,1.5,0.3,2.1,0.9C58,193.6,58.3,194.4,58.3,195.2z"/>
			</g>
			<g>
				<path d="M70,195.2c0,0.8-0.3,1.6-0.9,2.1c-0.6,0.5-1.3,0.8-2.2,0.8c-0.8,0-1.5-0.3-2.1-0.9c-0.5-0.6-0.8-1.4-0.8-2.2
					c0-1.6,1.3-2.8,3-2.8c0,0,0,0,0,0c0.8,0,1.6,0.3,2.1,0.9C69.7,193.6,70,194.4,70,195.2z"/>
			</g>
			<g>
				<path d="M58.3,207.2c0,0.8-0.3,1.6-0.9,2.1c-0.6,0.5-1.3,0.8-2.2,0.8c-0.8,0-1.5-0.3-2.1-0.9c-0.5-0.6-0.8-1.3-0.8-2.2
					c0-1.6,1.3-2.8,3-2.8c0,0,0,0,0,0c0.8,0,1.6,0.3,2.1,0.9C58,205.6,58.3,206.4,58.3,207.2z"/>
			</g>
			<g>
				<path d="M81.6,195.2c0,0.8-0.3,1.6-0.9,2.1c-0.5,0.5-1.3,0.8-2.1,0.8c-0.8,0-1.6-0.3-2.1-0.9c-0.5-0.6-0.8-1.3-0.8-2.2
					c0-1.6,1.3-2.9,2.9-2.9h0c0.8,0,1.6,0.3,2.1,0.8C81.3,193.6,81.6,194.3,81.6,195.2z"/>
			</g>
			<g>
				<path d="M93.3,195.2c0,0.8-0.3,1.6-0.9,2.1c-0.6,0.5-1.3,0.8-2.1,0.8c-0.8,0-1.6-0.3-2.1-0.9c-0.5-0.6-0.8-1.3-0.8-2.2
					c0-1.6,1.3-2.9,3-2.9c0,0,0,0,0,0c0.8,0,1.6,0.3,2.1,0.8S93.3,194.4,93.3,195.2z"/>
			</g>
			<g>
				<path d="M104.9,195.2c0,0.8-0.3,1.6-0.8,2.1c-0.5,0.5-1.3,0.8-2.1,0.8h0c-0.8,0-1.6-0.3-2.1-0.9c-0.5-0.5-0.8-1.3-0.8-2.1
					c0-0.8,0.3-1.6,0.9-2.1c0.5-0.5,1.3-0.8,2.1-0.8h0.1C103.7,192.2,104.9,193.5,104.9,195.2z"/>
			</g>
			<g>
				<path d="M116.6,195.1c0,0.8-0.3,1.6-0.8,2.1c-0.5,0.5-1.3,0.8-2.1,0.8h0c-0.8,0-1.6-0.3-2.1-0.8s-0.8-1.3-0.8-2.1
					c0-1.6,1.3-2.9,2.9-2.9h0.1c0.8,0,1.5,0.3,2.1,0.8C116.3,193.6,116.6,194.3,116.6,195.1z"/>
			</g>
			<g>
				<path d="M75.8,270.9c0,0.8-0.3,1.6-0.8,2.1c-0.5,0.6-1.3,0.9-2.1,0.9h0c-0.8,0-1.6-0.3-2.1-0.9c-0.5-0.6-0.8-1.3-0.8-2.1
					c0-1.6,1.3-2.9,2.9-2.9h0.1c0.8,0,1.6,0.3,2.1,0.8C75.5,269.3,75.8,270,75.8,270.9z"/>
			</g>
			<g>
				<path d="M40.9,201c0,0.8-0.3,1.6-0.9,2.1c-0.5,0.5-1.3,0.8-2.1,0.8c-0.8,0-1.6-0.3-2.1-0.9c-0.5-0.6-0.8-1.3-0.8-2.2
					c0-1.6,1.3-2.9,3-2.9c0.8,0,1.6,0.3,2.1,0.8C40.6,199.4,40.9,200.2,40.9,201z"/>
			</g>
			<g>
				<path d="M18.1,201c0,0.8-0.3,1.6-0.9,2.1c-0.6,0.5-1.3,0.8-2.1,0.8c-0.8,0-1.6-0.3-2.1-0.9c-0.5-0.6-0.8-1.3-0.8-2.2
					c0-1.6,1.3-2.9,3-2.9c0.8,0,1.6,0.3,2.1,0.8C17.8,199.4,18.1,200.2,18.1,201z"/>
			</g>
			<g>
				<path d="M52.5,201c0,0.8-0.3,1.6-0.9,2.1c-0.5,0.5-1.3,0.8-2.1,0.8c-0.8,0-1.6-0.3-2.1-0.9c-0.5-0.6-0.8-1.3-0.8-2.2
					c0-1.6,1.3-2.9,2.9-2.9h0c0.8,0,1.6,0.3,2.1,0.8S52.5,200.2,52.5,201z"/>
			</g>
			<g>
				<path d="M64.2,201c0,0.8-0.3,1.6-0.9,2.1c-0.6,0.5-1.3,0.8-2.1,0.8c-0.8,0-1.6-0.3-2.1-0.9c-0.5-0.6-0.8-1.3-0.8-2.2
					c0-0.8,0.3-1.5,0.9-2.1c0.5-0.5,1.3-0.8,2.1-0.8h0.1C63,198.1,64.2,199.4,64.2,201z"/>
			</g>
			<g>
				<path d="M75.8,201c0,0.8-0.3,1.6-0.9,2.1c-0.5,0.5-1.3,0.8-2.1,0.8h0c-1.6,0-2.9-1.3-2.9-2.9c0-0.8,0.3-1.6,0.8-2.2
					c0.5-0.5,1.3-0.8,2.1-0.9c0.8,0,1.6,0.3,2.1,0.8C75.5,199.4,75.8,200.2,75.8,201z"/>
			</g>
			<g>
				<path d="M87.5,201c0,0.8-0.3,1.6-0.9,2.1c-0.5,0.6-1.3,0.8-2.1,0.8c-0.8,0-1.6-0.3-2.1-0.9c-0.5-0.6-0.8-1.3-0.8-2.2
					c0-0.8,0.3-1.5,0.9-2.1c0.5-0.5,1.3-0.8,2.1-0.8h0.1C86.2,198.1,87.5,199.4,87.5,201z"/>
			</g>
			<g>
				<path d="M99.1,201c0,0.8-0.3,1.6-0.9,2.1c-0.5,0.5-1.3,0.8-2.1,0.8h0c-0.8,0-1.6-0.3-2.1-0.9c-0.5-0.6-0.8-1.3-0.8-2.2
					c0-1.6,1.3-2.9,2.9-2.9h0c0.8,0,1.6,0.3,2.1,0.8C98.8,199.4,99.1,200.2,99.1,201z"/>
			</g>
			<g>
				<path d="M110.8,201L110.8,201c0,0.9-0.3,1.6-0.9,2.2s-1.3,0.8-2.2,0.8c-0.8,0-1.6-0.3-2.1-0.9c-0.5-0.6-0.8-1.3-0.8-2.2
					c0-1.6,1.3-2.8,3-2.8c0,0,0,0,0,0c0.8,0,1.6,0.3,2.1,0.9C110.5,199.4,110.8,200.2,110.8,201z"/>
			</g>
			<g>
				<path d="M122.4,201L122.4,201c0,0.9-0.3,1.6-0.9,2.1c-0.6,0.5-1.3,0.8-2.1,0.8c-0.8,0-1.6-0.3-2.1-0.9c-0.5-0.6-0.8-1.3-0.8-2.2
					c0-1.6,1.3-2.9,2.9-2.9c0,0,0,0,0,0c0.8,0,1.6,0.3,2.1,0.8C122.1,199.4,122.4,200.2,122.4,201z"/>
			</g>
			<g>
				<path d="M134.1,201c0,0.8-0.3,1.6-0.9,2.1c-0.6,0.5-1.3,0.8-2.2,0.8c-0.8,0-1.5-0.3-2.1-0.9c-0.5-0.6-0.8-1.3-0.8-2.2
					c0-1.6,1.3-2.8,3-2.8c0,0,0,0,0,0c0.8,0,1.6,0.3,2.1,0.9C133.8,199.5,134.1,200.2,134.1,201z"/>
			</g>
			<g>
				<path d="M87.5,271c0,0.8-0.3,1.5-0.9,2.1c-0.6,0.5-1.4,0.8-2.2,0.8c-1.6,0-2.9-1.3-2.9-3c0-0.8,0.3-1.6,0.9-2.1
					c0.5-0.5,1.3-0.8,2.1-0.8h0c0.8,0,1.6,0.3,2.1,0.9C87.2,269.4,87.5,270.1,87.5,271z"/>
			</g>
			<g>
				<path d="M99.1,271c0,0.8-0.3,1.5-0.9,2.1c-0.6,0.5-1.4,0.8-2.2,0.8c-1.6,0-2.8-1.3-2.8-3c0-0.8,0.3-1.6,0.9-2.1
					c0.5-0.5,1.3-0.8,2.1-0.8h0c0.8,0,1.6,0.3,2.1,0.9C98.8,269.4,99.1,270.1,99.1,271z"/>
			</g>
			<g>
				<path d="M64.2,284c0,0.8-0.3,1.6-0.9,2.1c-0.6,0.5-1.3,0.8-2.2,0.8c-1.6,0-2.9-1.3-2.9-2.9c0-0.8,0.3-1.6,0.8-2.1
					c0.5-0.5,1.3-0.8,2.1-0.8c0,0,0,0,0,0c0.8,0,1.6,0.3,2.1,0.9C63.9,282.4,64.2,283.1,64.2,284z"/>
			</g>
			<g>
				<path d="M52.7,284c0,0.8-0.3,1.6-0.9,2.1c-0.6,0.5-1.3,0.8-2.2,0.8c-1.6,0-2.9-1.3-2.9-2.9c0-0.8,0.3-1.6,0.8-2.1
					c0.5-0.5,1.3-0.8,2.1-0.8h0c0.8,0,1.6,0.3,2.1,0.9C52.4,282.4,52.7,283.1,52.7,284z"/>
			</g>
			<g>
				<path d="M41.5,284c0,0.8-0.3,1.6-0.9,2.1c-0.6,0.5-1.3,0.8-2.2,0.8c-1.6,0-2.9-1.3-2.9-2.9c0-0.8,0.3-1.6,0.8-2.1
					s1.3-0.8,2.1-0.8c0,0,0,0,0,0c0.8,0,1.6,0.3,2.1,0.9C41.2,282.4,41.5,283.1,41.5,284z"/>
			</g>
			<g>
				<path d="M75.8,283.9c0,0.8-0.3,1.6-0.8,2.1c-0.5,0.5-1.3,0.8-2.1,0.8h0c-0.8,0-1.6-0.3-2.1-0.9c-0.5-0.5-0.8-1.3-0.8-2.1
					c0-1.6,1.3-2.9,2.9-2.9h0.1c0.8,0,1.6,0.3,2.1,0.8C75.5,282.3,75.8,283.1,75.8,283.9z"/>
			</g>
			<g>
				<path d="M87.5,284c0,0.8-0.3,1.5-0.9,2.1c-0.6,0.5-1.4,0.8-2.2,0.8c-1.6,0-2.9-1.3-2.9-3c0-0.8,0.3-1.6,0.9-2.1
					c0.5-0.5,1.3-0.8,2.1-0.8h0c0.8,0,1.6,0.3,2.1,0.9C87.2,282.4,87.5,283.2,87.5,284z"/>
			</g>
			<g>
				<path d="M99.1,284c0,0.8-0.3,1.5-0.9,2.1c-0.6,0.5-1.3,0.8-2.2,0.8c-1.6,0-2.8-1.3-2.8-3c0-0.8,0.3-1.6,0.9-2.1
					c0.5-0.5,1.3-0.8,2.1-0.8h0c0.8,0,1.6,0.3,2.1,0.9C98.8,282.4,99.1,283.2,99.1,284z"/>
			</g>
			<g>
				<path d="M110.1,284c0,0.8-0.3,1.5-0.9,2.1c-0.6,0.5-1.3,0.8-2.2,0.8c-1.6,0-2.8-1.3-2.8-3c0-0.8,0.3-1.6,0.9-2.1
					c0.5-0.5,1.3-0.8,2.1-0.8h0c0.8,0,1.6,0.3,2.1,0.9C109.9,282.4,110.1,283.2,110.1,284z"/>
			</g>
			<g>
				<path d="M23.4,206.8c0,0.8-0.3,1.6-0.9,2.1c-0.5,0.6-1.3,0.9-2.1,0.8c-0.8,0-1.6-0.3-2.1-0.9c-0.5-0.6-0.8-1.3-0.8-2.2
					c0-0.8,0.3-1.6,0.9-2.1c0.6-0.5,1.3-0.8,2.2-0.8C22.2,203.9,23.4,205.2,23.4,206.8z"/>
			</g>
			<g>
				<path d="M29.2,201c0,0.8-0.3,1.6-0.9,2.1c-0.5,0.5-1.3,0.8-2.1,0.8c0,0,0,0,0,0c-0.8,0-1.6-0.3-2.1-0.9
					c-0.5-0.5-0.8-1.3-0.8-2.2c0-0.8,0.3-1.5,0.9-2.1c0.6-0.5,1.3-0.9,2.2-0.8C28,198.1,29.2,199.4,29.2,201z"/>
			</g>
			<g>
				<path d="M35,206.9c0,0.8-0.3,1.5-0.9,2.1c-0.6,0.5-1.4,0.8-2.2,0.8c-1.6,0-2.9-1.3-2.9-3c0-0.8,0.3-1.6,0.9-2.1
					c0.5-0.5,1.3-0.8,2.1-0.8h0c0.8,0,1.6,0.3,2.1,0.9C34.8,205.3,35.1,206.1,35,206.9z"/>
			</g>
			<g>
				<path d="M46.7,206.8c0,0.8-0.3,1.6-0.8,2.1c-0.5,0.5-1.3,0.8-2.1,0.8c0,0,0,0,0,0c-0.8,0-1.6-0.3-2.1-0.9
					c-0.5-0.6-0.8-1.3-0.8-2.1c0-1.6,1.3-2.9,2.9-2.9h0c0.8,0,1.6,0.3,2.1,0.8C46.4,205.2,46.7,206,46.7,206.8z"/>
			</g>
			<g>
				<path d="M110.8,270.9c0,0.8-0.3,1.6-0.9,2.1c-0.6,0.5-1.3,0.8-2.2,0.8c-0.8,0-1.6-0.3-2.1-0.9c-0.5-0.6-0.8-1.3-0.8-2.2
					c0-1.6,1.3-2.9,3-2.9c0.8,0,1.6,0.3,2.1,0.9C110.5,269.3,110.8,270.1,110.8,270.9z"/>
			</g>
			<g>
				<path d="M122.5,270.9c0,0.8-0.3,1.6-0.9,2.1c-0.6,0.5-1.3,0.8-2.2,0.8c-0.8,0-1.5-0.3-2.1-0.9c-0.5-0.6-0.8-1.3-0.8-2.2
					c0-1.6,1.3-2.9,3-2.9c0,0,0,0,0,0c0.8,0,1.6,0.3,2.1,0.9C122.2,269.3,122.5,270.1,122.5,270.9z"/>
			</g>
			<g>
				<path d="M46.7,276.7c0,0.8-0.3,1.6-0.8,2.1c-0.5,0.6-1.3,0.9-2.1,0.9h0c-0.8,0-1.6-0.3-2.1-0.8s-0.8-1.3-0.8-2.1
					c0-1.6,1.2-2.9,2.9-2.9h0.1c0.8,0,1.5,0.3,2.1,0.8C46.4,275.1,46.7,275.8,46.7,276.7z"/>
			</g>
			<g>
				<path d="M58.3,276.7c0,0.8-0.3,1.6-0.8,2.1c-0.5,0.5-1.3,0.8-2.1,0.8h0c-0.8,0-1.6-0.3-2.1-0.9c-0.5-0.5-0.8-1.3-0.8-2.1
					c0-1.6,1.3-2.9,2.9-2.9h0c0.8,0,1.6,0.3,2.1,0.8C58,275.1,58.3,275.9,58.3,276.7z"/>
			</g>
			<g>
				<path d="M35.4,276.7c0,0.8-0.3,1.6-0.9,2.1c-0.5,0.5-1.3,0.8-2.1,0.8c0,0,0,0,0,0c-0.8,0-1.6-0.3-2.1-0.9
					c-0.5-0.5-0.8-1.3-0.8-2.1c0-1.6,1.3-2.9,2.9-2.9h0c0.8,0,1.5,0.3,2.1,0.8C35.1,275.1,35.4,275.9,35.4,276.7z"/>
			</g>
			<g>
				<path d="M23.7,276.7c0,0.8-0.3,1.6-0.9,2.1c-0.5,0.5-1.3,0.8-2.1,0.8c0,0,0,0,0,0c-0.8,0-1.6-0.3-2.1-0.9
					c-0.5-0.5-0.8-1.3-0.8-2.1c0-1.6,1.3-2.9,2.9-2.9h0c0.8,0,1.6,0.3,2.1,0.8C23.4,275.1,23.7,275.9,23.7,276.7z"/>
			</g>
			<g>
				<path d="M93.3,206.8c0,0.8-0.3,1.6-0.8,2.1c-0.6,0.5-1.3,0.8-2.1,0.8c-0.8,0-1.6-0.3-2.1-0.9s-0.8-1.3-0.8-2.2
					c0-1.6,1.3-2.9,2.9-2.9h0c0.8,0,1.6,0.3,2.1,0.8C93,205.2,93.3,206,93.3,206.8z"/>
			</g>
			<g>
				<path d="M104.9,206.9c0,0.8-0.3,1.5-0.9,2.1c-0.6,0.5-1.3,0.8-2.2,0.8c-1.6,0-2.8-1.3-2.8-3c0-0.8,0.3-1.6,0.9-2.1
					c0.5-0.5,1.3-0.8,2.1-0.8h0c0.8,0,1.6,0.3,2.1,0.9C104.7,205.3,105,206.1,104.9,206.9z"/>
			</g>
			<g>
				<path d="M116.6,206.8c0,0.8-0.3,1.6-0.8,2.1c-0.5,0.6-1.3,0.9-2.1,0.9c-0.8,0-1.6-0.3-2.1-0.9c-0.5-0.5-0.8-1.3-0.8-2.1
					c0-1.6,1.3-2.9,2.9-2.9h0c0.8,0,1.6,0.3,2.1,0.8C116.3,205.2,116.6,206,116.6,206.8z"/>
			</g>
			<g>
				<path d="M128.2,206.8L128.2,206.8c0,0.9-0.3,1.6-0.9,2.1c-0.6,0.5-1.3,0.8-2.2,0.8c-0.8,0-1.5-0.3-2.1-0.9
					c-0.5-0.6-0.8-1.3-0.8-2.2c0-1.6,1.3-2.8,3-2.8c0,0,0,0,0,0c0.8,0,1.6,0.3,2.1,0.9C127.9,205.3,128.2,206,128.2,206.8z"/>
			</g>
			<g>
				<path d="M70,276.8c0,0.8-0.3,1.6-0.9,2.1c-0.6,0.5-1.3,0.8-2.2,0.8c-1.6,0-2.9-1.3-2.9-2.9c0-0.8,0.3-1.6,0.8-2.1
					c0.5-0.6,1.3-0.9,2.1-0.9c0,0,0,0,0,0c0.8,0,1.6,0.3,2.1,0.9C69.7,275.2,70,275.9,70,276.8z"/>
			</g>
			<g>
				<path d="M17.6,212.6v0.1c0,0.8-0.3,1.5-0.9,2.1c-0.6,0.5-1.4,0.8-2.2,0.8c-0.8,0-1.5-0.4-2-0.9c-0.5-0.6-0.8-1.4-0.8-2.2
					c0.1-1.6,1.3-2.8,3-2.8h0.1c0.8,0,1.5,0.3,2.1,0.9C17.3,211.1,17.6,211.8,17.6,212.6z"/>
			</g>
			<g>
				<path d="M29.2,212.6c0,0.8-0.3,1.6-0.8,2.1c-1.1,1.1-3.2,1.1-4.2,0c-0.5-0.5-0.8-1.3-0.8-2.1c0-1.6,1.3-2.9,2.9-2.9h0.1
					c0.8,0,1.5,0.3,2.1,0.8C28.9,211,29.2,211.8,29.2,212.6z"/>
			</g>
			<g>
				<path d="M40.5,212.6c0,0.8-0.3,1.6-0.8,2.1c-1.1,1.1-3.1,1.1-4.2,0c-0.5-0.5-0.8-1.3-0.8-2.1c0-1.6,1.3-2.9,2.9-2.9h0.1
					c0.8,0,1.5,0.3,2.1,0.8C40.2,211,40.5,211.8,40.5,212.6z"/>
			</g>
			<g>
				<path d="M6,212.6c0,0.8-0.3,1.6-0.8,2.1c-1.1,1.1-3.1,1.1-4.2,0c-0.5-0.5-0.8-1.3-0.8-2.1c0-1.6,1.3-2.9,2.9-2.9H3
					c0.8,0,1.6,0.3,2.1,0.8C5.7,211,6,211.8,6,212.6z"/>
			</g>
			<g>
				<path d="M81.6,276.7L81.6,276.7c0,0.9-0.3,1.6-0.9,2.1c-0.6,0.5-1.3,0.8-2.2,0.8c-0.8,0-1.5-0.4-2-0.9c-0.5-0.6-0.8-1.4-0.8-2.2
					c0.1-1.6,1.3-2.8,3-2.8h0.1c0.8,0,1.5,0.3,2.1,0.9C81.4,275.2,81.6,275.9,81.6,276.7z"/>
			</g>
			<g>
				<path d="M93.3,276.8c0,0.8-0.3,1.5-0.9,2.1c-0.6,0.5-1.3,0.8-2.2,0.8c-1.6,0-2.9-1.3-2.9-3c0-0.8,0.3-1.6,0.9-2.1
					c0.5-0.5,1.3-0.8,2.1-0.8h0c0.8,0,1.6,0.3,2.1,0.9C93,275.2,93.3,276,93.3,276.8z"/>
			</g>
			<g>
				<path d="M104.7,276.8c0,0.8-0.3,1.5-0.9,2.1c-0.6,0.5-1.3,0.8-2.2,0.8c-1.6,0-2.8-1.3-2.8-3c0-0.8,0.3-1.6,0.9-2.1
					c0.5-0.5,1.3-0.8,2.1-0.8h0.1c0.8,0,1.5,0.3,2.1,0.9C104.5,275.2,104.8,276,104.7,276.8z"/>
			</g>
			<g>
				<path d="M116.6,276.8c0,0.8-0.3,1.5-0.9,2.1c-0.6,0.5-1.3,0.8-2.2,0.8c-1.6,0-2.9-1.3-2.9-3c0-0.8,0.3-1.6,0.9-2.1
					c0.5-0.5,1.3-0.8,2.1-0.8h0c0.8,0,1.6,0.3,2.1,0.9C116.4,275.2,116.7,276,116.6,276.8z"/>
			</g>
			<g>
				<path d="M129,276.8c0,0.8-0.3,1.5-0.9,2.1c-0.6,0.5-1.3,0.8-2.2,0.8c-1.6,0-2.9-1.3-2.8-3c0-0.8,0.3-1.6,0.9-2.1
					s1.3-0.8,2.1-0.8h0c0.8,0,1.6,0.3,2.1,0.9C128.7,275.2,129,276,129,276.8z"/>
			</g>
			<g>
				<path d="M128.2,230.1c0,0.8-0.3,1.6-0.8,2.1c-0.5,0.5-1.3,0.8-2.1,0.8h0c-1.6,0-2.9-1.3-2.9-2.9c0-0.8,0.3-1.6,0.8-2.2
					c0.5-0.5,1.3-0.9,2.1-0.9c0.9,0,1.6,0.3,2.1,0.8C127.9,228.5,128.2,229.3,128.2,230.1z"/>
			</g>
			<g>
				<path d="M110.8,212.6c0,0.8-0.3,1.6-0.8,2.1c-0.5,0.6-1.3,0.9-2.1,0.9c0,0,0,0,0,0c-0.8,0-1.6-0.3-2.1-0.9
					c-0.5-0.5-0.8-1.3-0.8-2.1c0-1.6,1.3-2.9,2.9-2.9h0.1c0.8,0,1.6,0.3,2.1,0.8C110.4,211,110.8,211.8,110.8,212.6z"/>
			</g>
			<g>
				<path d="M122.4,212.7c0,0.8-0.3,1.6-0.9,2.1c-0.6,0.5-1.3,0.8-2.2,0.8c-1.6,0-2.9-1.3-2.9-3c0-0.8,0.3-1.6,0.9-2.1
					c0.5-0.5,1.3-0.8,2.1-0.8h0c0.8,0,1.6,0.3,2.1,0.9C122.1,211.1,122.4,211.9,122.4,212.7z"/>
			</g>
			<g>
				<path d="M134.1,212.6c0,0.8-0.3,1.6-0.8,2.1c-0.6,0.5-1.3,0.9-2.1,0.9h0c-0.8,0-1.6-0.3-2.1-0.9c-0.5-0.6-0.8-1.3-0.8-2.1
					c0-0.8,0.3-1.6,0.9-2.1c0.6-0.5,1.3-0.8,2.2-0.8C132.8,209.7,134,211,134.1,212.6z"/>
			</g>
			<g>
				<path d="M145.4,212.6c0,0.8-0.3,1.6-0.9,2.1c-0.5,0.5-1.3,0.9-2.1,0.9c0,0,0,0,0,0c-0.8,0-1.6-0.3-2.1-0.9
					c-0.5-0.6-0.8-1.3-0.8-2.1c0-0.8,0.3-1.6,0.9-2.1c0.6-0.5,1.3-0.8,2.2-0.8C144.1,209.7,145.4,211,145.4,212.6z"/>
			</g>
			<g>
				<path d="M11.7,218.5c0,0.8-0.3,1.6-0.9,2.1c-0.6,0.5-1.3,0.9-2.2,0.8c-0.8,0-1.5-0.3-2.1-0.9c-0.5-0.6-0.8-1.3-0.8-2.2
					c0.1-1.6,1.3-2.8,3-2.8h0c0.8,0,1.6,0.3,2.1,0.9C11.5,216.9,11.8,217.7,11.7,218.5z"/>
			</g>
			<g>
				<path d="M23.4,218.5c0,0.8-0.3,1.6-0.9,2.1c-0.5,0.5-1.3,0.8-2.1,0.8h0c-0.8,0-1.6-0.3-2.1-0.9c-0.5-0.6-0.8-1.3-0.8-2.2
					c0-1.6,1.3-2.9,2.9-2.9h0c0.8,0,1.6,0.3,2.1,0.8C23.1,216.9,23.4,217.7,23.4,218.5z"/>
			</g>
			<g>
				<path d="M34.7,218.5c0,0.8-0.3,1.6-0.9,2.1c-0.6,0.5-1.4,0.8-2.1,0.8c-0.8,0-1.6-0.3-2.1-0.9c-0.5-0.6-0.8-1.3-0.8-2.2
					c0-1.6,1.3-2.9,2.9-2.9h0c0.8,0,1.6,0.3,2.1,0.8C34.4,216.9,34.7,217.7,34.7,218.5z"/>
			</g>
			<g>
				<path d="M116.6,218.5c0,0.8-0.3,1.6-0.9,2.1c-0.5,0.5-1.3,0.8-2.1,0.8c-0.8,0-1.6-0.3-2.1-0.9c-0.5-0.5-0.8-1.3-0.8-2.1
					c0-1.6,1.3-2.9,2.9-2.9h0c0.8,0,1.6,0.3,2.1,0.8C116.3,216.9,116.6,217.6,116.6,218.5z"/>
			</g>
			<g>
				<path d="M128.2,218.5c0,0.8-0.3,1.6-0.9,2.1c-0.5,0.5-1.3,0.8-2.1,0.8c-0.8,0-1.6-0.3-2.1-0.9c-0.5-0.6-0.8-1.3-0.8-2.2
					c0-1.6,1.3-2.9,2.9-2.9h0c0.8,0,1.6,0.3,2.1,0.8C127.9,216.9,128.2,217.7,128.2,218.5z"/>
			</g>
			<g>
				<path d="M139.9,218.5c0,0.8-0.3,1.6-0.9,2.1c-0.6,0.5-1.3,0.9-2.2,0.8c-0.8,0-1.5-0.3-2.1-0.9c-0.5-0.6-0.8-1.3-0.8-2.2
					c0-1.6,1.3-2.8,3-2.8h0c0.8,0,1.6,0.3,2.1,0.9C139.6,216.9,139.9,217.7,139.9,218.5z"/>
			</g>
			<g>
				<path d="M5.9,224.3c0,0.8-0.3,1.6-0.8,2.1c-0.5,0.5-1.3,0.9-2.1,0.8c-0.8,0-1.6-0.3-2.1-0.9c-0.5-0.6-0.8-1.3-0.8-2.2
					c0-1.6,1.3-2.9,2.9-2.9c0,0,0,0,0,0c0.8,0,1.6,0.3,2.1,0.8C5.6,222.7,5.9,223.5,5.9,224.3z"/>
			</g>
			<g>
				<path d="M17.6,224.3c0,0.8-0.3,1.6-0.8,2.1c-0.6,0.5-1.3,0.9-2.1,0.8c-0.8,0-1.6-0.3-2.1-0.9c-0.5-0.6-0.8-1.3-0.8-2.2
					c0-1.6,1.3-2.9,2.9-2.9h0c0.8,0,1.6,0.3,2.1,0.8C17.3,222.7,17.6,223.5,17.6,224.3z"/>
			</g>
			<g>
				<path d="M29.2,224.3c0,0.8-0.3,1.6-0.9,2.1c-0.6,0.5-1.3,0.8-2.1,0.8c-1.6,0-2.9-1.3-2.9-2.9c0-0.8,0.3-1.6,0.8-2.1
					c0.5-0.5,1.3-0.9,2.1-0.9h0c0.8,0,1.6,0.3,2.1,0.8C28.9,222.7,29.2,223.5,29.2,224.3z"/>
			</g>
			<g>
				<path d="M122.4,224.2c0,0.8-0.3,1.6-0.8,2.1c-0.5,0.5-1.3,0.9-2.1,0.9h0c-0.8,0-1.6-0.3-2.1-0.8c-0.6-0.5-0.9-1.3-0.8-2.1
					c0-0.8,0.3-1.6,0.9-2.1c0.5-0.5,1.3-0.8,2.1-0.8h0C121.1,221.4,122.4,222.6,122.4,224.2z"/>
			</g>
			<g>
				<path d="M134.1,224.2c0,0.8-0.3,1.6-0.8,2.1c-0.5,0.5-1.3,0.9-2.1,0.9c-0.8,0-1.6-0.3-2.1-0.8c-0.5-0.6-0.8-1.3-0.8-2.1
					c0-0.8,0.3-1.6,0.8-2.1c0.5-0.5,1.3-0.8,2.1-0.8c0,0,0,0,0,0C132.8,221.3,134,222.6,134.1,224.2z"/>
			</g>
			<g>
				<path d="M145.7,224.4c0,0.8-0.3,1.5-0.9,2.1c-0.6,0.5-1.3,0.8-2.2,0.8c-0.8,0-1.5-0.3-2-0.9c-0.5-0.6-0.8-1.4-0.8-2.2
					c0.1-1.6,1.3-2.8,3-2.8h0.1c0.8,0,1.5,0.3,2.1,0.9C145.4,222.8,145.7,223.6,145.7,224.4z"/>
			</g>
			<g>
				<path d="M11.7,230.2c0,0.8-0.3,1.6-0.9,2.1c-0.6,0.5-1.3,0.8-2.2,0.8c-0.8,0-1.5-0.3-2.1-0.9c-0.5-0.6-0.8-1.3-0.8-2.2
					c0-1.6,1.3-2.8,3-2.8c0,0,0,0,0,0c0.8,0,1.6,0.3,2.1,0.9C11.5,228.6,11.8,229.3,11.7,230.2z"/>
			</g>
			<g>
				<path d="M23.4,230.1c0,0.8-0.3,1.6-0.8,2.1c-0.5,0.5-1.3,0.8-2.1,0.8c-0.8,0-1.6-0.3-2.1-0.8c-0.5-0.6-0.8-1.3-0.8-2.1
					c0-0.8,0.3-1.6,0.9-2.1c0.6-0.5,1.3-0.8,2.1-0.8C22.1,227.2,23.4,228.4,23.4,230.1z"/>
			</g>
			<g>
				<path d="M139.9,230.1c0,0.8-0.3,1.6-0.9,2.1c-0.5,0.5-1.3,0.8-2.1,0.8c0,0,0,0,0,0c-0.8,0-1.6-0.3-2.1-0.9
					c-0.5-0.5-0.8-1.3-0.8-2.2c0-0.8,0.3-1.5,0.9-2.1c0.6-0.5,1.3-0.8,2.2-0.8C138.6,227.2,139.9,228.5,139.9,230.1z"/>
			</g>
			<g>
				<path d="M5.9,235.9c0,0.8-0.3,1.6-0.8,2.1c-0.5,0.5-1.3,0.8-2.1,0.8c-1.7,0-2.9-1.2-3-2.9c0-0.8,0.3-1.6,0.8-2.2
					c0.5-0.6,1.3-0.9,2.1-0.9c0.8,0,1.6,0.3,2.1,0.8C5.6,234.3,5.9,235.1,5.9,235.9z"/>
			</g>
			<g>
				<path d="M17.6,235.9c0,0.8-0.3,1.6-0.8,2.1c-0.5,0.5-1.3,0.8-2.1,0.8c0,0,0,0,0,0c-0.8,0-1.6-0.3-2.1-0.8
					c-0.5-0.6-0.8-1.3-0.8-2.2c0-1.6,1.3-2.9,2.9-2.9h0c0.8,0,1.6,0.3,2.1,0.8C17.3,234.4,17.6,235.1,17.6,235.9z"/>
			</g>
			<g>
				<path d="M29.1,236c0,1.7-1.2,2.9-2.9,2.9c0,0,0,0,0,0c-0.8,0-1.6-0.3-2.1-0.8c-0.5-0.5-0.9-1.3-0.9-2.1c0-0.8,0.3-1.6,0.9-2.1
					c0.5-0.5,1.3-0.8,2.1-0.8h0C28,233,29.2,234.2,29.1,236z"/>
			</g>
			<g>
				<path d="M122.4,235.9c0,0.8-0.3,1.6-0.9,2.1c-0.5,0.5-1.3,0.9-2.1,0.8c-0.8,0-1.6-0.3-2.1-0.9c-0.5-0.6-0.8-1.3-0.8-2.2
					c0-0.8,0.3-1.6,0.9-2.1c0.6-0.5,1.3-0.8,2.2-0.8C121.2,233,122.4,234.3,122.4,235.9z"/>
			</g>
			<g>
				<path d="M134.1,236c0,0.8-0.3,1.6-0.9,2.1c-0.5,0.5-1.3,0.8-2.2,0.8c-0.8,0-1.6-0.3-2.1-0.9c-0.5-0.6-0.8-1.3-0.8-2.2
					c0-1.6,1.3-2.9,2.9-2.9h0c0.8,0,1.6,0.3,2.1,0.8C133.8,234.4,134.1,235.1,134.1,236z"/>
			</g>
			<g>
				<path d="M145.7,236c0,0.8-0.3,1.6-0.9,2.1c-0.6,0.5-1.3,0.8-2.2,0.8c-0.8,0-1.6-0.3-2.1-0.9c-0.5-0.6-0.8-1.3-0.8-2.2
					c0-1.6,1.3-2.9,3-2.9h0c0.8,0,1.6,0.3,2.1,0.8C145.4,234.4,145.7,235.1,145.7,236z"/>
			</g>
			<g>
				<path d="M11.7,241.8c0,0.8-0.3,1.6-0.9,2.1c-0.5,0.5-1.3,0.8-2.1,0.8c-0.8,0-1.6-0.3-2.1-0.9c-0.5-0.6-0.8-1.3-0.8-2.2
					c0-1.6,1.3-2.9,2.9-2.9h0c0.8,0,1.6,0.3,2.1,0.8C11.4,240.2,11.7,240.9,11.7,241.8z"/>
			</g>
			<g>
				<path d="M23.4,241.8c0,0.8-0.3,1.6-0.9,2.1c-0.6,0.5-1.3,0.8-2.2,0.8c-0.8,0-1.6-0.3-2.1-0.9c-0.5-0.6-0.8-1.3-0.8-2.2
					c0-0.8,0.3-1.5,0.9-2.1c0.6-0.5,1.3-0.8,2.2-0.8C22.2,238.9,23.4,240.1,23.4,241.8z"/>
			</g>
			<g>
				<path d="M128.2,241.7c0,0.8-0.3,1.6-0.8,2.2c-0.5,0.5-1.3,0.9-2.1,0.9c-0.8,0-1.6-0.3-2.1-0.8c-0.5-0.5-0.8-1.3-0.8-2.1
					s0.3-1.6,0.8-2.1c0.6-0.5,1.3-0.8,2.1-0.8h0C126.9,238.8,128.2,240.1,128.2,241.7z"/>
			</g>
			<g>
				<path d="M139.9,241.8c0,0.8-0.3,1.6-0.9,2.1c-0.6,0.5-1.3,0.9-2.1,0.8s-1.6-0.3-2.1-0.9c-0.5-0.6-0.8-1.3-0.8-2.2
					c0-1.6,1.3-2.9,2.9-2.9c0,0,0,0,0,0c0.8,0,1.6,0.3,2.1,0.8C139.6,240.2,139.9,240.9,139.9,241.8z"/>
			</g>
		</g>
		<g>
			<g>
				<path d="M107.8,38.9C77.2,18.6,35.9,27,15.6,57.6c-20.3,30.6-11.9,71.9,18.8,92.2c30.6,20.3,71.9,11.9,92.2-18.8
					C146.8,100.4,138.4,59.2,107.8,38.9z M78.5,140.4c-18.1,2.5-30.5-16.9-34.6-42.3c-4.1-25.5,1.7-47.4,19.8-49.9
					c18-2.5,30.5,16.9,34.5,42.3C102.3,116,96.5,137.9,78.5,140.4z"/>
			</g>
		</g>
	</g>
</g>
</svg>
